PathFileType        4      (X/Y/Z)      C:\Users\pc\Desktop\IMUTRC\Sujet_04\Sujet_04_velo_60.trc         
DataRate	CameraRate	NumFrames	NumMarkers	Units	OrigDataRate	OrigDataStartFrame	OrigNumFrames
60.0	60.0	4	64	mm	60.0	943	1257
Frame#	Time	pHipOrigin			pRightASI			pLeftASI			pRightCSI			pLeftCSI			pRightIschialTub			pLeftIschialTub			pSacrum			pL5SpinalProcess			pL3SpinalProcess			pT12SpinalProcess			pIJ			pT4SpinalProcess			pT8SpinalProcess			pPX			pC7SpinalProcess			pTopOfHead			pRightAuricularis			pLeftAuricularis			pBackOfHead			pRightAcromion			pLeftAcromion			pRightArmLatEpicondyle			pRightArmMedEpicondyle			pLeftArmLatEpicondyle			pLeftArmMedEpicondyle			pRightUlnarStyloid			pRightRadialStyloid			pRightOlecranon			pLeftUlnarStyloid			pLeftRadialStyloid			pLeftOlecranon			pRightTopOfHand			pRightPinky			pRightBallHand			pLeftTopOfHand			pLeftPinky			pLeftBallHand			pRightGreaterTrochanter			pRightKneeLatEpicondyle			pRightKneeMedEpicondyle			pRightPatella			pLeftGreaterTrochanter			pLeftKneeLatEpicondyle			pLeftKneeMedEpicondyle			pLeftPatella			pRightTibialTub			pRightLatMalleolus			pRightMedMalleolus			pLeftTibialTub			pLeftLatMalleolus			pLeftMedMalleolus			pRightHeelFoot			pRightFirstMetatarsal			pRightFifthMetatarsal			pRightPivotFoot			pRightHeelCenter			pRightToe			pLeftHeelFoot			pLeftFirstMetatarsal			pLeftFifthMetatarsal			pLeftPivotFoot			pLeftHeelCenter			pLeftToe			
		X1	Y1	Z1	X2	Y2	Z2	X3	Y3	Z3	X4	Y4	Z4	X5	Y5	Z5	X6	Y6	Z6	X7	Y7	Z7	X8	Y8	Z8	X9	Y9	Z9	X10	Y10	Z10	X11	Y11	Z11	X12	Y12	Z12	X13	Y13	Z13	X14	Y14	Z14	X15	Y15	Z15	X16	Y16	Z16	X17	Y17	Z17	X18	Y18	Z18	X19	Y19	Z19	X20	Y20	Z20	X21	Y21	Z21	X22	Y22	Z22	X23	Y23	Z23	X24	Y24	Z24	X25	Y25	Z25	X26	Y26	Z26	X27	Y27	Z27	X28	Y28	Z28	X29	Y29	Z29	X30	Y30	Z30	X31	Y31	Z31	X32	Y32	Z32	X33	Y33	Z33	X34	Y34	Z34	X35	Y35	Z35	X36	Y36	Z36	X37	Y37	Z37	X38	Y38	Z38	X39	Y39	Z39	X40	Y40	Z40	X41	Y41	Z41	X42	Y42	Z42	X43	Y43	Z43	X44	Y44	Z44	X45	Y45	Z45	X46	Y46	Z46	X47	Y47	Z47	X48	Y48	Z48	X49	Y49	Z49	X50	Y50	Z50	X51	Y51	Z51	X52	Y52	Z52	X53	Y53	Z53	X54	Y54	Z54	X55	Y55	Z55	X56	Y56	Z56	X57	Y57	Z57	X58	Y58	Z58	X59	Y59	Z59	X60	Y60	Z60	X61	Y61	Z61	X62	Y62	Z62	X63	Y63	Z63	X64	Y64	Z64	
943	15.7	4.919999564491574E-14	1250.01928	5.863427156544783E-14	79.17913160707255	1328.39862	160.83255529614024	89.25528523291726	1365.07833	-130.66948314278196	40.757834725049925	1408.66044	142.7325004746548	49.00475122342227	1438.66592	-95.92721096310311	-68.97375700133968	1189.32378	50.652604744454585	-64.85030579631378	1204.32652	-68.67725159070852	-68.97229826661822	1281.2227	1.5779616290473015	-13.92780466637969	1383.27557	15.261203673880795	50.03131601130217	1486.46933	27.942778208102883	112.93107227785652	1578.31121	38.38566581261895	378.6195708827285	1607.23284	56.569056065872815	263.1111632767834	1713.67815	55.04741226733539	187.67379609997164	1659.08642	47.678172633683246	278.8000617301041	1528.45419	46.49978870026783	311.63986864989005	1746.19359	59.90048509546244	557.7932998754964	1812.25129	74.59318919044463	471.1772800327675	1764.27675	137.14521836537227	475.90579673916375	1773.68911	0.2548291810200283	448.85179467170997	1816.87191	71.13564792349086	297.5924636994085	1691.37369	248.69451545429447	323.3465935831866	1719.78192	-129.9081337688982	310.7165875659864	1369.07145	276.404651571391	271.9332417442585	1359.20273	222.64106616384248	374.24787524717726	1398.27831	-101.72727948148035	337.90488607259795	1395.93948	-45.46647956637949	400.13871222027126	1135.87295	197.05152225147987	446.49419945777976	1153.27157	217.95124589879367	269.50538642385413	1356.80686	241.13537866141	429.26035894034544	1165.13685	12.289195526593403	479.4712380716676	1183.44818	17.815818767511757	332.1025719038465	1389.03708	-78.65014739812926	588.4410503304703	1031.13898	305.115879262815	500.59205675907333	1037.69912	247.54550484783604	455.0304934160924	1099.99187	208.77784342565025	642.9146418017034	1055.32591	23.571718750789103	538.3898786023422	1065.82213	30.258866912992232	481.60112158627487	1130.73893	34.19845476136831	15.622669387159732	1216.8193	176.4082526824307	278.5478727570737	870.159	176.65542763579867	282.64560819582994	865.02498	92.79321292376247	316.2441634803884	898.45314	131.76945670167123	29.563764425685235	1244.88526	-175.0058663994515	393.02988126314096	1006.55274	-154.42263040363292	396.52174037197005	1007.29432	-70.30131497746649	417.9670145639403	1048.0242	-110.85938809712681	303.8179989932192	810.94666	128.94120639428758	-8.112422462476339	533.88082	93.188267710383	1.2922025658302996	539.69938	27.808710568729417	439.0179223412916	964.05448	-112.66183272594441	263.7838899354367	585.96258	-153.5019895277188	265.7616507348435	583.73784	-87.24807917158712	-84.16700204076061	479.85954	50.2951446255431	71.79789177816508	396.2321	17.497437496976453	64.63368444551705	391.44035	101.69873193366686	89.21423310078572	382.08502	59.55238859169272	-46.05529758767608	460.97777	52.4957461815812	167.9274908017145	337.19089	63.726027941861375	212.37452706811445	500.50971	-116.17279573242791	381.7490633589523	487.38944	-56.49071450787227	389.9228770512882	478.09116	-140.19877706392464	409.4986032725529	480.42999	-94.59417011433905	254.7517008727731	498.51314	-111.81742474213898	499.1356994089655	470.84649	-84.76789266679981	
944	15.717	4.919999564491574E-14	1250.01928	5.863427156544783E-14	78.14291622223304	1328.79794	161.1063206268925	90.11822674370299	1364.73606	-130.35103962273038	39.88084493045841	1409.0027	142.57479183607617	49.7054433662024	1438.3807	-96.06835972875896	-69.31080239037617	1189.43787	50.339683735525426	-64.42034754608387	1204.15539	-68.96355591404166	-68.96678341594026	1281.2227	1.0520719351741405	-14.01670430767562	1383.27557	14.889010631257138	49.78318435188214	1486.46933	28.002051474365715	112.50966031650663	1578.4253	39.03714026924119	378.0223734582078	1607.74624	59.22968642919761	262.27839493418844	1713.96337	57.16105356700565	187.06504146456558	1659.3146	49.08258192956944	278.447978615122	1528.79646	48.21008720273586	310.6845469827481	1746.59291	62.48928911162302	556.553708220639	1813.22105	79.50558584133796	469.4524624208705	1764.90424	141.12437573316885	475.46683423018294	1774.54478	4.346484293258726	447.65990498390954	1817.55644	75.03995393379728	295.53310709228424	1691.03142	250.94378300849817	323.93932105050715	1720.63759	-127.42683892346292	309.7326084497546	1368.72919	277.0069006814109	271.16776025196924	1358.97455	223.059987052272	374.24386845515585	1398.79171	-100.75585344614993	337.7838484671519	1396.2247	-44.54578693630805	399.70875397004136	1135.87295	197.33782657481305	446.02053837206995	1153.32861	218.27422125525945	268.6158358879168	1356.46459	241.58393235274877	428.6330024359544	1165.13685	12.51774230276473	478.9172172056657	1183.27705	18.13176355419853	332.025229473436	1389.49344	-77.76611937331435	588.1492234960148	1031.13898	305.2118171343344	500.25653474958233	1037.69912	247.6781073246119	454.64423676877414	1099.99187	209.0274908041713	642.366143446824	1055.26887	23.361767415726604	537.8273178753363	1065.70804	30.2096492268343	481.0611695202755	1130.62484	34.35367355959494	14.95161770773322	1218.13133	176.67346406385855	287.7217243070754	879.11501	181.02122118811332	292.5864569572219	873.58168	97.1856155012287	324.8850871062935	908.20778	136.21010161147595	29.439701809913274	1243.28801	-174.97622593609788	383.04086736951336	990.63729	-153.6364431670825	386.57642165337796	991.49296	-69.55179234617253	409.65011118797884	1031.19603	-110.21033640633482	311.5296837001729	819.50335	132.89564356535726	-7.624713092960725	551.45057	92.70455747244435	2.335448520448802	557.61139	27.45458545768512	430.3358641529298	948.9947	-112.00424760202455	263.4990936707602	567.19489	-153.4864114364915	265.5205508777708	564.85606	-87.26917977393686	-84.18408176276841	498.62723	49.56481967985376	70.81791945395469	413.00322	17.128260571665965	63.332251251373606	408.21147	101.30143792454821	87.90576167641888	398.62797	59.23546079074217	-46.2401491888119	479.2891	51.831725071933676	166.0353657084366	352.64999	63.600975883949545	212.56490118037266	481.39975	-116.03467074452965	381.860585749575	469.36333	-55.914083748295724	390.3121574763641	459.83687	-139.55735818740737	409.7271500487242	462.40388	-93.96681360994805	254.97170778794052	479.63137	-111.55523071059264	499.46019814497674	453.33379	-83.848708095385	
945	15.733	4.919999564491574E-14	1250.01928	5.863427156544783E-14	77.012265829223	1329.1402	161.53377371588152	91.09819264003728	1364.39379	-129.98187035786432	38.91644303703092	1409.28793	142.49041760331832	50.479471147371676	1438.15252	-96.1221104838994	-69.68450472422474	1189.609	49.983061123684664	-63.90299771321463	1204.0413	-69.32320353620835	-68.95422910247053	1281.27975	0.44580194481233804	-14.061915201812143	1383.27557	14.48014532293253	49.52802855055923	1486.52638	28.14169218136501	112.0375213777739	1578.48234	39.8056531997325	377.3096673672396	1608.37374	62.28512096128904	261.33712797872846	1714.30564	59.58913036213775	186.3181554133851	1659.48574	50.67735767726944	278.0381315251019	1529.19577	50.11777629892059	309.6573977358737	1747.04926	65.43623145872537	555.1478668336308	1814.3049	84.92982390229866	467.56139630939094	1765.53173	145.61536042271234	474.9053324849755	1775.57159	8.913303354556092	446.2650945308256	1818.29802	79.41239851869116	293.29192266178177	1690.68916	253.42009570809273	324.66466385035574	1721.55031	-124.61000674764774	308.4934658717555	1368.38692	277.74879692630617	270.19081170551647	1358.74637	223.58187638199985	374.2624638962647	1399.30512	-99.57999858687947	337.575405190746	1396.50993	-43.551752239971364	399.0673350935241	1135.8159	197.72710699988892	445.33542432051706	1153.32861	218.7001662855919	267.5444651890457	1356.17936	242.25952476160222	427.9112161187006	1165.07981	12.899998585937738	478.18840031863294	1183.04887	18.594379617663577	331.93381701045473	1390.00684	-76.72135127171873	587.602233199792	1031.13898	305.44740214072914	499.70954445335946	1037.69912	247.91369233100664	454.0465207277367	1100.04891	209.38010019611454	641.6428490709136	1055.09773	23.29848735744247	537.1336563023352	1065.5369	30.270438212198172	480.346415005369	1130.45371	34.65555597415542	14.156495752090322	1219.5004	176.9683223365161	296.7730289604061	888.75555	185.86218511736263	302.48511860223493	882.82291	102.06021902540864	333.44012967335254	918.64695	141.16959798493045	29.352303799397845	1241.74781	-174.90289029770872	371.9493330224361	974.43661	-152.74424839058725	375.4848873063007	975.29228	-68.65959756967735	400.267367284713	1013.9115	-109.41159485631465	319.5206562490012	828.80163	137.36039999951714	-5.922954451496572	569.02032	92.69147811458181	4.636438922051335	575.46637	27.534426621460433	420.544247280895	933.36446	-111.1602887299918	261.4688371617079	548.31312	-153.4210970425895	263.4903007965946	545.91724	-87.20385771959052	-82.58529922304704	517.22379	49.340279695703835	71.63012755948151	430.00253	17.563734905142173	63.74262461835479	425.32486	101.7017633718689	88.38947834223363	415.45614	59.723177820702226	-44.896522450413435	497.48634	51.746825794783035	166.00172488093767	368.73658	64.44834696395239	210.651675484745	462.46093	-115.91862294536875	379.8318449596237	450.70973	-55.40323944081268	388.487851938229	441.06919	-139.06910845261007	407.8154465000736	443.75028	-93.40522823676164	253.05145795040997	460.74959	-111.35881547069532	497.49072296084387	434.79428	-83.08972570060584	
946	15.75	4.919999564491574E-14	1250.01928	5.863427156544783E-14	75.80828622569992	1329.48247	161.8738364547995	92.19519701024063	1363.99448	-129.56197411561544	37.91537653834691	1409.6302	142.362348195525	51.37756154431291	1437.86729	-96.20550170239345	-70.13858092668588	1189.78014	49.61940670949658	-63.42231248560191	1203.92721	-69.72654633341057	-68.94168244944524	1281.33679	-0.16046161767336997	-14.107133756393099	1383.27557	14.07128644248402	49.27285866091578	1486.58342	28.28133165579596	111.52870497803247	1578.59643	40.53045563429942	376.5969548483954	1609.00123	65.34054783293604	260.39586102326837	1714.70495	62.01720715726985	185.6149645372402	1659.71391	52.23546881971292	277.62828320251356	1529.65213	52.02547948342587	308.55691927848613	1747.50562	68.29578345575675	553.6475892058838	1815.38875	90.50776380981665	465.5532917240423	1766.27331	150.055618134873	474.3804953450246	1776.54135	13.523817590888996	444.83362713292956	1819.09665	83.74114150067348	291.08740283653583	1690.40393	255.94010358272286	325.3462973868483	1722.52007	-121.75651119914431	307.203603976818	1368.04465	278.6077252171944	269.2068390171608	1358.57524	224.1841331524642	374.25143296234046	1399.87556	-98.52820511081264	337.3740001445635	1396.8522	-42.63808375180278	398.3385182064913	1135.8159	198.18972306335394	444.56290459800437	1153.38566	219.19945338218952	266.39272062156203	1355.89414	242.92808536810836	427.07943079036954	1165.07981	13.151147595239252	477.4229188263437	1182.93478	19.013300506093117	331.8127858328848	1390.52024	-75.80065098120285	586.9819008373038	1031.13898	305.59558147616394	499.0384851134885	1037.75616	248.1789101403106	453.28806337735034	1100.10596	209.7186536438076	640.7954779909107	1054.9266	23.264846529943554	536.2792623129978	1065.36577	30.317150737115156	479.5216538189408	1130.28257	34.826337542720495	13.200641380111165	1220.92651	177.24910414872681	305.9132409154772	899.25177	191.0753356613596	312.5460296152536	892.91981	107.394414835296	342.0107490990705	929.94179	146.41390471138203	29.308608624362336	1240.26465	-174.86622569245222	359.9597018505415	958.35002	-151.76867005604237	363.4515609593706	959.26273	-67.64735462987596	389.86245628041354	996.68402	-108.49982285701515	327.71755925255013	839.01262	142.24808288155964	-2.5390220518169855	586.24781	93.35194916951062	8.612564851645894	592.92203	28.368184406195184	409.65011118797884	917.84832	-110.21033640633482	257.55350021747716	530.11588	-153.56119325432314	259.53125335643955	527.60591	-87.30727647031539	-79.38471679372277	535.19285	49.78225832199788	74.32190644481653	446.71661	18.730531286892028	66.03257765815695	442.21008	102.83339035126663	90.789423965237	432.11318	60.98590441352698	-41.877752523578515	515.17018	52.41583671071572	168.00838328684375	384.76612	66.04108071559024	206.66300290212516	444.20664	-116.1461171676178	375.64727575362326	432.3984	-55.24296252921073	384.5006809863896	422.70081	-138.8510739938463	403.66051775742676	425.38191	-93.12088870938774	249.01204430208674	442.4953	-111.4692724516436	493.35840287920337	416.36886	-82.60094968884738	
